<svg id="eUjo3Sn2ArH1" xmlns="http://www.w3.org/2000/svg" xmlns:xlink="http://www.w3.org/1999/xlink" viewBox="0 0 300 300" shape-rendering="geometricPrecision" text-rendering="geometricPrecision" project-id="3e7e3628745b40fd9ea8c58bcb8dfa1f" export-id="e226e7be54de4ffd8eeb94d74a4a6d9c" cached="false"><path d="M82.846375,240.925499l18.886833-56.944495l36.662674-33.981005-9.998911,50.589812l18.886832,40.335683" transform="matrix(1.04409 0 0 0.843685 28.122675 93.973938)" fill="none" stroke="#000" stroke-width="6"/><path d="M116.265696,196.476752l20.351897-81.149107-36.419183,40.34256-44.988403-18.21922" transform="matrix(.996056-.013082 0.012474 0.949745 54.247005 35.280738)" fill="none" stroke="#000" stroke-width="6"/><path d="M206.741062,107.376046l-38.87925,26.954295-34.991327-26.954295" transform="matrix(.999804-.019822 0.019822 0.999804-20.915373 37.565741)" fill="none" stroke="#000" stroke-width="6"/><ellipse rx="23.878132" ry="28.156928" transform="matrix(.828328 0.34472-.356298 0.856149 196.871573 117.662212)" stroke-width="0"/><rect width="48.092548" height="15.244736" rx="0" ry="0" transform="matrix(1.690591 0.472311-.421339 1.508145 62.400956 123.530078)" stroke-width="0"/><rect width="48.092548" height="15.244736" rx="0" ry="0" transform="matrix(1.598797 0.724585-.646389 1.426257 69.864057 81.412688)" stroke-width="0"/><rect width="48.092548" height="15.244736" rx="0" ry="0" transform="matrix(1.399864 1.059036-.944746 1.248792 103.36282 48.916281)" stroke-width="0"/><rect width="48.092548" height="15.244736" rx="0" ry="0" transform="matrix(1.103853 1.364802-1.217514 0.984726 128.813119 7.891278)" stroke-width="0"/><rect width="48.092548" height="15.244736" rx="0" ry="0" transform="matrix(.754504 1.584898-1.413857 0.673078 177.837336 2.760832)" stroke-width="0"/></svg>
